<svg width="130" height="130" viewBox="0 0 130 130" fill="none" xmlns="http://www.w3.org/2000/svg">
<path fill-rule="evenodd" clip-rule="evenodd" d="M48.75 64.9999C59.2042 64.9999 67.7083 56.4958 67.7083 46.0416C67.7083 35.5874 59.2042 27.0833 48.75 27.0833C38.2958 27.0833 29.7917 35.5874 29.7917 46.0416C29.7917 56.4958 38.2958 64.9999 48.75 64.9999ZM10.8333 93.4374C10.8333 80.8166 36.075 74.4791 48.75 74.4791C61.425 74.4791 86.6667 80.8166 86.6667 93.4374V102.917H10.8333V93.4374ZM48.75 85.3124C39.0542 85.3124 28.0583 88.9416 23.5083 92.0832H73.9917C69.4417 88.9416 58.4458 85.3124 48.75 85.3124ZM56.875 46.0416C56.875 41.5458 53.2458 37.9166 48.75 37.9166C44.2542 37.9166 40.625 41.5458 40.625 46.0416C40.625 50.5374 44.2542 54.1666 48.75 54.1666C53.2458 54.1666 56.875 50.5374 56.875 46.0416ZM86.8833 74.8041C93.1667 79.3541 97.5 85.4208 97.5 93.4374V102.917H119.167V93.4374C119.167 82.4958 100.208 76.2666 86.8833 74.8041ZM100.208 46.0416C100.208 56.4958 91.7041 64.9999 81.25 64.9999C78.325 64.9999 75.6167 64.2958 73.125 63.1041C76.5375 58.2833 78.5417 52.3791 78.5417 46.0416C78.5417 39.7041 76.5375 33.7999 73.125 28.9791C75.6167 27.7874 78.325 27.0833 81.25 27.0833C91.7041 27.0833 100.208 35.5874 100.208 46.0416Z" fill="white" fill-opacity="0.81"/>
</svg>
