<svg width="136" height="130" viewBox="0 0 136 130" fill="none" xmlns="http://www.w3.org/2000/svg">
<path d="M37.7778 129.372C35.986 129.372 34.5397 127.877 34.5397 126.026V119.334C34.5397 116.256 32.1219 113.758 29.1429 113.758H11.873C8.89397 113.758 6.47619 116.256 6.47619 119.334V126.026C6.47619 127.877 5.02984 129.372 3.2381 129.372C1.44635 129.372 0 127.877 0 126.026V119.334C0 112.565 5.32127 107.066 11.873 107.066H29.1429C35.6946 107.066 41.0159 112.565 41.0159 119.334V126.026C41.0159 127.877 39.5695 129.372 37.7778 129.372ZM20.5079 100.375C12.7689 100.375 6.47619 93.8727 6.47619 85.8761C6.47619 77.8796 12.7689 71.3776 20.5079 71.3776C28.247 71.3776 34.5397 77.8796 34.5397 85.8761C34.5397 93.8727 28.247 100.375 20.5079 100.375ZM20.5079 78.0692C16.3416 78.0692 12.9524 81.5712 12.9524 85.8761C12.9524 90.1811 16.3416 93.6831 20.5079 93.6831C24.6743 93.6831 28.0635 90.1811 28.0635 85.8761C28.0635 81.5712 24.6743 78.0692 20.5079 78.0692ZM85.2698 129.372C83.4781 129.372 82.0318 127.877 82.0318 126.026V119.334C82.0318 116.256 79.614 113.758 76.6349 113.758H59.3651C56.386 113.758 53.9683 116.256 53.9683 119.334V126.026C53.9683 127.877 52.5219 129.372 50.7302 129.372C48.9384 129.372 47.4921 127.877 47.4921 126.026V119.334C47.4921 112.565 52.8133 107.066 59.3651 107.066H76.6349C83.1867 107.066 88.5079 112.565 88.5079 119.334V126.026C88.5079 127.877 87.0616 129.372 85.2698 129.372ZM68 100.375C60.261 100.375 53.9683 93.8727 53.9683 85.8761C53.9683 77.8796 60.261 71.3776 68 71.3776C75.739 71.3776 82.0318 77.8796 82.0318 85.8761C82.0318 93.8727 75.739 100.375 68 100.375ZM68 78.0692C63.8336 78.0692 60.4444 81.5712 60.4444 85.8761C60.4444 90.1811 63.8336 93.6831 68 93.6831C72.1664 93.6831 75.5556 90.1811 75.5556 85.8761C75.5556 81.5712 72.1664 78.0692 68 78.0692ZM132.762 129.372C130.97 129.372 129.524 127.877 129.524 126.026V119.334C129.524 116.256 127.106 113.758 124.127 113.758H106.857C103.878 113.758 101.46 116.256 101.46 119.334V126.026C101.46 127.877 100.014 129.372 98.2222 129.372C96.4305 129.372 94.9841 127.877 94.9841 126.026V119.334C94.9841 112.565 100.305 107.066 106.857 107.066H124.127C130.679 107.066 136 112.565 136 119.334V126.026C136 127.877 134.554 129.372 132.762 129.372ZM115.492 100.375C107.753 100.375 101.46 93.8727 101.46 85.8761C101.46 77.8796 107.753 71.3776 115.492 71.3776C123.231 71.3776 129.524 77.8796 129.524 85.8761C129.524 93.8727 123.231 100.375 115.492 100.375ZM115.492 78.0692C111.326 78.0692 107.937 81.5712 107.937 85.8761C107.937 90.1811 111.326 93.6831 115.492 93.6831C119.658 93.6831 123.048 90.1811 123.048 85.8761C123.048 81.5712 119.658 78.0692 115.492 78.0692ZM44.254 64.6859C36.5149 64.6859 30.2222 58.1839 30.2222 50.1873C30.2222 42.1908 36.5149 35.6888 44.254 35.6888C51.993 35.6888 58.2857 42.1908 58.2857 50.1873C58.2857 58.1839 51.993 64.6859 44.254 64.6859ZM44.254 42.3804C40.0876 42.3804 36.6984 45.8824 36.6984 50.1873C36.6984 54.4923 40.0876 57.9943 44.254 57.9943C48.4203 57.9943 51.8095 54.4923 51.8095 50.1873C51.8095 45.8824 48.4203 42.3804 44.254 42.3804ZM91.746 64.6859C84.007 64.6859 77.7143 58.1839 77.7143 50.1873C77.7143 42.1908 84.007 35.6888 91.746 35.6888C99.4851 35.6888 105.778 42.1908 105.778 50.1873C105.778 58.1839 99.4851 64.6859 91.746 64.6859ZM91.746 42.3804C87.5797 42.3804 84.1905 45.8824 84.1905 50.1873C84.1905 54.4923 87.5797 57.9943 91.746 57.9943C95.9124 57.9943 99.3016 54.4923 99.3016 50.1873C99.3016 45.8824 95.9124 42.3804 91.746 42.3804ZM68 28.9971C60.261 28.9971 53.9683 22.4951 53.9683 14.4986C53.9683 6.50205 60.261 0 68 0C75.739 0 82.0318 6.50205 82.0318 14.4986C82.0318 22.4951 75.739 28.9971 68 28.9971ZM68 6.69165C63.8336 6.69165 60.4444 10.1936 60.4444 14.4986C60.4444 18.8035 63.8336 22.3055 68 22.3055C72.1664 22.3055 75.5556 18.8035 75.5556 14.4986C75.5556 10.1936 72.1664 6.69165 68 6.69165Z" fill="white" fill-opacity="0.81"/>
</svg>
